<svg id="Layer_1" data-name="Layer 1" xmlns="http://www.w3.org/2000/svg" viewBox="0 0 360 312"><defs><style>.cls-1{fill:#60bbea;}.cls-2{fill:#5faddd;}.cls-3{fill:#b6e2e6;}.cls-4{fill:#2a5082;}.cls-5{fill:#34497b;}.cls-6{fill:#393861;}.cls-7{fill:#47aed2;}.cls-8{fill:#304673;}.cls-9{fill:#336bb4;}.cls-10{fill:#bce1f4;}.cls-11{fill:#b3d4f0;}.cls-12{fill:#cbebf6;}.cls-13{fill:#cbe9fa;}</style></defs><path class="cls-1" d="M50.65,189c6.37,1.85,4.87,9.31-.38,19.14C44,219.9,23.59,235.88,8.35,231.38h0a17.42,17.42,0,0,1-4-1.76c-15.43-9.2,30.89-39.48,38.26-40.66A18.79,18.79,0,0,1,50.65,189Z"/><path class="cls-2" d="M50.65,189c6.37,1.85,4.87,9.31-.38,19.14C44,219.9,23.59,235.88,8.35,231.38,22,226.86,44.08,215.58,50.65,189Z"/><path class="cls-3" d="M11.58,214c3.29-2.67,9.13-6.57,10.14-5.51s-3,7.38-8.54,11.48c-3.79,2.81-9,5.11-9.8,4.06S7.3,217.44,11.58,214Z"/><path class="cls-1" d="M163.68,207.78c0,26.95-18.92,58.61-49,58.61-18.62,0-33.94-11.39-42.9-26.63a61.41,61.41,0,0,1-8.61-30.67c0-27.61,30.14-26.3,49.24-26.3,21,0,45.82-1.6,50.45,17.91A30,30,0,0,1,163.68,207.78Z"/><path class="cls-2" d="M163.68,207.78c0,26.95-18.92,58.61-49,58.61-18.62,0-33.94-11.39-42.9-26.63,18.66,8.78,71.81,27,91.08-39.06A30,30,0,0,1,163.68,207.78Z"/><path class="cls-3" d="M73.61,198.38c-3.9,6.37-1.14,15.42,5.56,19,7.09,3.76,16.72.39,19.36-7.08,2.5-7.1-2.32-15.05-9.23-17.28C83.76,191.21,76.86,193.09,73.61,198.38Z"/><path class="cls-1" d="M219,209.33c6,10.82,7.4,18.8-1.69,19.59a25.59,25.59,0,0,1-5.63-.24c-7.39-1.05-54.26-30.45-39-39.94a19.62,19.62,0,0,1,13.13-2.52C199.14,187.93,213.7,199.93,219,209.33Z"/><path class="cls-2" d="M219,209.33c6,10.82,7.4,18.8-1.69,19.59-1-7-6.69-21.2-31.51-42.7C199.14,187.93,213.7,199.93,219,209.33Z"/><path class="cls-3" d="M189.07,206.33c6.77,4.94,17.84,14,17,15.26s-11.44-3.81-20.21-11.64c-4.88-4.35-9.69-10.06-9-10.88C177.72,198.05,187,204.79,189.07,206.33Z"/><path class="cls-1" d="M48.25,135.43a19.25,19.25,0,0,1-5-5.28,19,19,0,0,1,13.2-28.95C63.59,121.68,48.25,135.43,48.25,135.43Z"/><path class="cls-2" d="M48.25,135.43a19.25,19.25,0,0,1-5-5.28c1.53-4.11,3-8.47,4.47-13.06q2.37-7.59,4.08-14.58a19.09,19.09,0,0,1,4.65-1.31Q52.34,118.32,48.25,135.43Z"/><path class="cls-1" d="M155.94,139.51c2.44,26.67-56.54,45.33-87.43,34.06-8.58-3.13-15-8.57-17.32-16.79C40.5,119,60.19,79.48,89.5,74.65c10.63-1.75,23.77.26,35.59,7.56C140.23,91.56,153.2,109.59,155.94,139.51Z"/><path class="cls-1" d="M43.5,117.29a27.63,27.63,0,0,1-10.87-7.88C28,104.06,22.89,94.27,25,78l2.87.37c-1.56,12.11.75,21.86,6.86,29a25.43,25.43,0,0,0,9.72,7.15Z"/><circle class="cls-4" cx="26.97" cy="74.79" r="6.72" transform="translate(-52.51 77.05) rotate(-71.8)"/><path class="cls-4" d="M136.42,118.82c.87,5.29-4.39,9.5-11.56,12.67-7.54,3.34-17.19,5.52-24,6.57-9.72,1.51-28.73,2.91-36.49-2.13A6.9,6.9,0,0,1,61,131.24a20.69,20.69,0,0,1,3.83-15.69A21.85,21.85,0,0,1,79,107l32.73-5.4a21.82,21.82,0,0,1,18.16,5.24A20.62,20.62,0,0,1,136.42,118.82Z"/><path class="cls-5" d="M136.42,118.82c.87,5.29-4.39,9.5-11.56,12.67-7.54,3.34-17.19,5.52-24,6.57-9.72,1.51-28.73,2.91-36.49-2.13,19.13-3.75,51.3-12.29,65.45-29.1A20.62,20.62,0,0,1,136.42,118.82Z"/><path class="cls-2" d="M155.94,139.51c2.44,26.67-56.54,45.33-87.43,34.06,17.74,0,70.18-2.16,75.35-28.44,4.44-22.61-10.08-49.41-18.77-62.92C140.23,91.56,153.2,109.59,155.94,139.51Z"/><path class="cls-3" d="M60,106.14c1.9,1.8,10.79-4.09,16.45-9.89C81.89,90.68,87,82.47,85.29,80.67c-1.53-1.6-8.2,2.14-12.27,5.24C63.92,92.86,57.93,104.18,60,106.14Z"/><path class="cls-3" d="M52.77,149.45c1.39,7,6.8,13,8.46,12.24s-.38-9.07-2-13.55c-.46-1.29-3.28-9.16-5.17-8.81C52.59,139.6,51.87,144.92,52.77,149.45Z"/><path class="cls-6" d="M129,115.47a9.66,9.66,0,0,1-17.88,6.43,9.87,9.87,0,0,1-1.18-3.29A9.66,9.66,0,1,1,129,115.47Z"/><path class="cls-7" d="M119.47,107.37a9.69,9.69,0,0,1,8,4.3A9.49,9.49,0,0,1,129,115.4a9.6,9.6,0,0,1-8,11,9.77,9.77,0,0,1-9.89-4.49,10.35,10.35,0,0,1-1.21-3.41,9.59,9.59,0,0,1,8-11,9.32,9.32,0,0,1,1.57-.13Zm0-1.64a11.54,11.54,0,0,0-1.85.15,11.25,11.25,0,0,0-7.35,4.54,11.16,11.16,0,0,0-.58,12.2,11.34,11.34,0,0,0,9.76,5.57,11.63,11.63,0,0,0,1.85-.15,11.25,11.25,0,0,0,9.31-12.91,10.93,10.93,0,0,0-1.73-4.37,11.26,11.26,0,0,0-9.41-5Z"/><path class="cls-8" d="M127.53,111.68c-2.14,9.18-11,10.39-16.38,10.25a9.67,9.67,0,0,1,16.38-10.25Z"/><path class="cls-3" d="M118.53,113.94a3.2,3.2,0,1,1-3.68-2.64A3.21,3.21,0,0,1,118.53,113.94Z"/><path class="cls-3" d="M127.24,117.66c.58.26.42,3.69-1.73,5.35-1.91,1.47-4.82,1.11-5,.51-.13-.45,1.29-.8,3.46-2.66S126.84,117.47,127.24,117.66Z"/><path class="cls-6" d="M86.73,122.43a9.67,9.67,0,1,1-1.48-3.76A9.48,9.48,0,0,1,86.73,122.43Z"/><path class="cls-7" d="M77.2,114.34a9.68,9.68,0,0,1,8,4.33,9.48,9.48,0,0,1,1.48,3.76,9.65,9.65,0,0,1-8,11.1,9.44,9.44,0,0,1-1.58.13,9.66,9.66,0,0,1-1.56-19.19,10.61,10.61,0,0,1,1.57-.13Zm0-1.65a11.46,11.46,0,0,0-1.85.16,11.3,11.3,0,0,0,1.82,22.46,11.45,11.45,0,0,0,1.85-.15,11.31,11.31,0,0,0-1.82-22.47Z"/><path class="cls-8" d="M85.24,118.65c-2.14,9.19-11,10.39-16.36,10.24a9.65,9.65,0,0,1,16.36-10.24Z"/><path class="cls-3" d="M76.27,120.91a3.21,3.21,0,1,1-3.69-2.64A3.22,3.22,0,0,1,76.27,120.91Z"/><path class="cls-3" d="M85,124.62c.57.26.42,3.7-1.73,5.36-1.91,1.47-4.82,1.1-5,.5-.12-.44,1.3-.8,3.46-2.65S84.58,124.44,85,124.62Z"/><path class="cls-9" d="M98.51,106c.19.62-3.84,2.82-8.21,4-7.08,1.84-14,.65-14.08-.16,0-.37,4.52-1.17,13.61-2.74C97.12,105.79,98.4,105.67,98.51,106Z"/><circle class="cls-9" cx="25.73" cy="73.17" r="3.61" transform="translate(-40.08 32.13) rotate(-38.68)"/><path class="cls-4" d="M108.29,161.48c-4,.91-7.65-.57-10.56-2.87-5.21-4.11-8.09-10.9-6.82-11.35,2-.69,7.66,1.92,13.14.69,6.29-1.42,10-4.8,13.23-5.73l.42-.11C121,141.37,120.65,158.7,108.29,161.48Z"/><path class="cls-5" d="M108.29,161.48c-4,.91-7.65-.57-10.56-2.87,5.23-2.32,15.31-7.74,19.55-16.39l.42-.11C121,141.37,120.65,158.7,108.29,161.48Z"/><path class="cls-10" d="M214.23,82.42S194.48,109.23,156,106.83a19.59,19.59,0,0,0,5.13-1.1c6.24-2.08,17.06-8.1,26.08-25.45l19.06,1.51Z"/><path class="cls-10" d="M356.42,36.5C318.31,98,196.9,78.93,153.29,69.76c-6.83-7.14-10.7-16.08-10.28-25.67.48-11.21,6.73-21.2,16.42-28.29S182.27,4.52,196.59,4.9l112,3C331.31,8.49,350.09,20.42,356.42,36.5Z"/><path class="cls-11" d="M294.1,88.72,305,89h.11c14.31.38,27.46-3.82,37.16-10.91S358.18,61,358.67,49.83a32.49,32.49,0,0,0-2.25-13.33C318.31,98,196.9,78.93,153.29,69.76c9.09,9.51,23.42,15.84,39.77,16.27l60.5,1.62,26.57.7Z"/><ellipse class="cls-12" cx="204.08" cy="32.62" rx="50.06" ry="24.66" transform="translate(-1.14 8.2) rotate(-2.29)"/><path class="cls-4" d="M182.66,54a10.75,10.75,0,0,1-8.23-3.77q-3-3.55-2.76-9.43t3.48-9.2a10.77,10.77,0,0,1,8.49-3.12,11,11,0,0,1,6.77,2.44,7.94,7.94,0,0,1,3,5.84L190,36.58a5,5,0,0,0-1.88-3.79,8.23,8.23,0,0,0-10.59.79c-1.53,1.67-2.35,4.1-2.48,7.3s.51,5.67,1.89,7.45a8.18,8.18,0,0,0,10.52,1.59,5.55,5.55,0,0,0,2.18-4l3.36.13a8.24,8.24,0,0,1-3.33,6A10.83,10.83,0,0,1,182.66,54Z"/><path class="cls-4" d="M208.19,52.68a8.79,8.79,0,0,1-6.33,2,6.57,6.57,0,0,1-4.32-1.61A4.63,4.63,0,0,1,196,49.31c.17-4.18,3.84-6.13,11-5.85l1.54.06a13.77,13.77,0,0,0-.09-2.79,2.3,2.3,0,0,0-1.07-1.48,5.76,5.76,0,0,0-2.93-.69q-4.23-.16-4.49,2.86l-3.16-.12q.55-5.49,7.92-5.21a9.14,9.14,0,0,1,5.3,1.57q1.86,1.44,1.71,5.43l-.45,11.54-3.16-.12Zm.11-2.86.15-4-2.17-.08q-6.9-.27-7,3.48a2.42,2.42,0,0,0,.93,2.14,4.6,4.6,0,0,0,2.69.84,6.93,6.93,0,0,0,3.06-.59A5.94,5.94,0,0,0,208.3,49.82Z"/><path class="cls-4" d="M219.76,39.35a7.06,7.06,0,0,1,5.44-2.47q6,.24,5.79,6.82l-.45,11.68-3.18-.13.44-11.54a5,5,0,0,0-.66-3.18,3.15,3.15,0,0,0-2.53-1.06c-1.61-.06-3.27.83-5,2.68l-.49,12.79L216,54.82,216.67,37l3.18.12Z"/><path class="cls-4" d="M248.41,56.07l-3.28-.13,1-24.67,3.28.13Z"/><path class="cls-4" d="M266.82,41.17a7,7,0,0,1,5.44-2.47q6,.24,5.78,6.82l-.45,11.68-3.18-.13.45-11.54a5,5,0,0,0-.66-3.18,3.15,3.15,0,0,0-2.53-1.06q-2.43-.09-5,2.68l-.49,12.79L263,56.63,264,32l3.18.12Z"/><path class="cls-4" d="M289.78,58.09a8.42,8.42,0,0,1-6.23-2.71,9.5,9.5,0,0,1-2.13-7A9.65,9.65,0,0,1,284,41.64a8.72,8.72,0,0,1,12.15.43q2.19,2.53,2,7l0,.76-13.45-.52A7,7,0,0,0,286.22,54a5.09,5.09,0,0,0,3.66,1.64,5.5,5.5,0,0,0,3-.73,2.85,2.85,0,0,0,1.5-2.37l3.28.13A5.91,5.91,0,0,1,295,56.79,8.76,8.76,0,0,1,289.78,58.09Zm5.11-10.89a6.47,6.47,0,0,0-1.59-3.92,4.86,4.86,0,0,0-6.56-.27,6.35,6.35,0,0,0-1.88,3.8Z"/><path class="cls-4" d="M304.56,58.24l-3.19-.12,1-24.68,3.18.13Z"/><path class="cls-4" d="M313,42.82a6.77,6.77,0,0,1,10.52.35A10.68,10.68,0,0,1,325.2,50a10.4,10.4,0,0,1-2.41,6.86,6.75,6.75,0,0,1-5.51,2.34,7,7,0,0,1-4.81-2l-.32,8.25L309,65.29l.95-24.73,3.19.13Zm-.44,11.48a6.22,6.22,0,0,0,4.59,2.35A3.78,3.78,0,0,0,320.51,55a9.29,9.29,0,0,0,1.41-5.19,9,9,0,0,0-.95-5.06,3.67,3.67,0,0,0-3.13-1.83c-1.76-.07-3.41.89-4.93,2.88Z"/><path class="cls-4" d="M328.34,41.17A7.52,7.52,0,0,1,331,36.06a8,8,0,0,1,5.6-1.71,8.45,8.45,0,0,1,5.67,2.11,6.13,6.13,0,0,1,2,4.91,6.35,6.35,0,0,1-.87,3,11.32,11.32,0,0,1-2.94,3,9.82,9.82,0,0,0-2.65,2.64,8.75,8.75,0,0,0-.6,3.37l-3-.11a10.86,10.86,0,0,1,.9-4.56,10.47,10.47,0,0,1,2.79-3,10.85,10.85,0,0,0,2.51-2.44,3.86,3.86,0,0,0,.54-1.86,4.28,4.28,0,0,0-1.15-3.24,4.56,4.56,0,0,0-3.3-1.38c-2.69-.1-4.34,1.38-4.93,4.46Zm9,18.34-3.45-.14.13-3.45,3.45.14Z"/><path class="cls-11" d="M214.23,82.42S194.48,109.23,156,106.83c0,0,2-.34,5.13-1.1,10.42-2.5,34-9.53,45.14-23.94Z"/><ellipse class="cls-13" cx="117.75" cy="292.65" rx="52.19" ry="13.53"/></svg>